<svg xmlns="http://www.w3.org/2000/svg" width="24" height="24" viewBox="0 0 24 24">
  <g id="Arrow_Right_24px" data-name="Arrow Right 24px" transform="translate(-16 -201)">
    <path id="Path_2183" data-name="Path 2183" d="M27.766-12.2a1.279,1.279,0,0,0-.42-.948L18.9-21.6a1.622,1.622,0,0,0-.467-.318,1.21,1.21,0,0,0-.481-.1,1.233,1.233,0,0,0-.9.352,1.182,1.182,0,0,0-.359.88,1.371,1.371,0,0,0,.095.5,1.159,1.159,0,0,0,.257.406l2.87,2.91,4.927,4.494.365-.745-4.291-.257H5.052a1.255,1.255,0,0,0-.927.359,1.238,1.238,0,0,0-.359.914,1.255,1.255,0,0,0,.359.927,1.255,1.255,0,0,0,.927.359H20.916l4.291-.271-.365-.717L19.915-7.437l-2.87,2.924a1.172,1.172,0,0,0-.257.4,1.354,1.354,0,0,0-.095.508,1.182,1.182,0,0,0,.359.88,1.233,1.233,0,0,0,.9.352,1.255,1.255,0,0,0,.907-.406l8.487-8.46A1.293,1.293,0,0,0,27.766-12.2Z" transform="translate(12.234 225.016)" fill="#ffffff"/>
    <rect id="Rectangle_1583" data-name="Rectangle 1583" width="24" height="24" transform="translate(16 201)" fill="none"/>
  </g>
</svg>
