<svg id="Keyboard" xmlns="http://www.w3.org/2000/svg" width="55" height="55" viewBox="0 0 55 55">
  <circle id="Ellipse_11" data-name="Ellipse 11" cx="27.5" cy="27.5" r="27.5" fill="#3f2c65"/>
  <g id="Keyboard-2" data-name="Keyboard">
    <circle id="Ellipse_11-2" data-name="Ellipse 11" cx="27.5" cy="27.5" r="27.5" fill="#8a658a"/>
  </g>
  <g id="Group_13051" data-name="Group 13051" transform="translate(12 12)">
    <rect id="Rectangle_5570" data-name="Rectangle 5570" width="32" height="32" fill="none"/>
    <path id="Path_28149" data-name="Path 28149" d="M21.635,22.175a11.193,11.193,0,0,0,4.6-.59,3.692,3.692,0,0,0-5.763-3.348m1.157,3.936v.038a7.221,7.221,0,0,1-.046.82,14.789,14.789,0,0,1-14.678,0,7.461,7.461,0,0,1-.046-.858m14.769,0a7.349,7.349,0,0,0-1.158-3.935m0,0a7.387,7.387,0,0,0-12.452,0m0,0a3.692,3.692,0,0,0-5.761,3.348,11.06,11.06,0,0,0,4.6.587m1.157-3.935a7.349,7.349,0,0,0-1.157,3.935M17.942,7.442A3.692,3.692,0,1,1,14.25,3.75,3.692,3.692,0,0,1,17.942,7.442Zm7.385,3.692a2.769,2.769,0,1,1-2.769-2.769A2.769,2.769,0,0,1,25.327,11.135Zm-16.616,0A2.769,2.769,0,1,1,5.942,8.365,2.769,2.769,0,0,1,8.711,11.135Z" transform="translate(1.749 1.634)" fill="none" stroke="#fff" stroke-linecap="round" stroke-linejoin="round" stroke-width="1.5"/>
  </g>
</svg>
