<svg xmlns="http://www.w3.org/2000/svg" width="55" height="55" viewBox="0 0 55 55"><defs><style>.a{fill:#3f2c65;}.b{fill:#fff;}</style></defs><g transform="translate(-24 -27)"><path class="a" d="M27.5,0A27.5,27.5,0,1,1,0,27.5,27.5,27.5,0,0,1,27.5,0Z" transform="translate(24 27)"/><path class="b" d="M10.943,5.472A2.569,2.569,0,0,0,12.708,4.6L17.545.317h7.82c3.885.013,6.259-2.4,6.259-6.246V-16.06c0-3.847-2.374-6.246-6.259-6.246H9.483c-3.872,0-6.246,2.387-6.246,6.246V-5.929c0,3.859,2.539,6.246,6,6.246h.343V3.961A1.332,1.332,0,0,0,10.943,5.472Zm.013-17.329A2.767,2.767,0,0,1,13.851-14.7c1.9,0,3.1,1.536,3.1,3.491,0,2.907-2.463,4.761-4,4.761a.657.657,0,0,1-.736-.635c0-.317.19-.546.6-.635a3.393,3.393,0,0,0,2.463-2.006h-.241a1.976,1.976,0,0,1-1.612.622A2.528,2.528,0,0,1,10.956-11.857Zm7.16,0A2.771,2.771,0,0,1,21-14.7c1.93,0,3.11,1.536,3.11,3.491,0,2.907-2.476,4.761-4.012,4.761a.653.653,0,0,1-.724-.635c0-.317.19-.546.6-.635a3.37,3.37,0,0,0,2.463-2.006h-.241a1.982,1.982,0,0,1-1.6.622A2.53,2.53,0,0,1,18.116-11.857Z" transform="translate(34 63)"/></g></svg>