<svg xmlns="http://www.w3.org/2000/svg" width="55" height="55" viewBox="0 0 55 55"><defs><style>.a{fill:#3f2c65;}.b{fill:#fff;}</style></defs><g transform="translate(-24 -27)"><path class="a" d="M27.5,0A27.5,27.5,0,1,1,0,27.5,27.5,27.5,0,0,1,27.5,0Z" transform="translate(24 27)"/><path class="b" d="M4.24-8.442a.7.7,0,0,1-.514-.381,1.092,1.092,0,0,1-.108-.749,1.062,1.062,0,0,1,.355-.66.73.73,0,0,1,.609-.2.755.755,0,0,1,.508.413,1.079,1.079,0,0,1,.1.73,1.236,1.236,0,0,1-.362.66A.648.648,0,0,1,4.24-8.442Zm4.443-11.07a4.752,4.752,0,0,0-3.136,1.2,8.65,8.65,0,0,0-2.323,3.364A15.62,15.62,0,0,0,2.146-9.89a3.2,3.2,0,0,1,1.225-1.295,3.558,3.558,0,0,1,1.847-.47,3.346,3.346,0,0,1,2.545,1.009A3.685,3.685,0,0,1,8.722-8a3.7,3.7,0,0,1-.958,2.66A3.346,3.346,0,0,1,5.218-4.329,3.64,3.64,0,0,1,3.51-4.716a3.127,3.127,0,0,1-1.187-1.06,13.55,13.55,0,0,0,1.27,4.215A7.769,7.769,0,0,0,5.821,1.206a4.7,4.7,0,0,0,2.863.978A4.618,4.618,0,0,0,11.261,1.4,7.013,7.013,0,0,0,13.349-.819a12.044,12.044,0,0,0,1.4-3.434,18.11,18.11,0,0,0,.5-4.418,16.885,16.885,0,0,0-.87-5.668,9.249,9.249,0,0,0-2.361-3.809A4.819,4.819,0,0,0,8.684-19.513Zm10.74,11.07a.737.737,0,0,1-.514-.387,1.071,1.071,0,0,1-.108-.743,1.135,1.135,0,0,1,.362-.66.713.713,0,0,1,.6-.2.713.713,0,0,1,.508.406,1.1,1.1,0,0,1,.1.736,1.167,1.167,0,0,1-.349.66A.665.665,0,0,1,19.424-8.442Zm4.443-11.07a4.752,4.752,0,0,0-3.136,1.2,8.65,8.65,0,0,0-2.323,3.364A15.408,15.408,0,0,0,17.342-9.89a3.112,3.112,0,0,1,1.212-1.295,3.583,3.583,0,0,1,1.86-.47,3.331,3.331,0,0,1,2.533,1.009A3.685,3.685,0,0,1,23.905-8a3.7,3.7,0,0,1-.958,2.66,3.331,3.331,0,0,1-2.533,1.009,3.64,3.64,0,0,1-1.708-.387,3.229,3.229,0,0,1-1.2-1.06,13.55,13.55,0,0,0,1.27,4.215A7.769,7.769,0,0,0,21,1.206a4.7,4.7,0,0,0,2.863.978A4.618,4.618,0,0,0,26.444,1.4,7.013,7.013,0,0,0,28.533-.819a12.17,12.17,0,0,0,1.4-3.434,17.894,17.894,0,0,0,.508-4.418,16.773,16.773,0,0,0-.876-5.668,9.337,9.337,0,0,0-2.361-3.809A4.811,4.811,0,0,0,23.867-19.513Z" transform="translate(35 63)"/></g></svg>