<svg xmlns="http://www.w3.org/2000/svg" width="24" height="24" viewBox="0 0 24 24">
  <path id="Instagram" d="M1427.065-626a7.062,7.062,0,0,1-5.032-1.887,6.963,6.963,0,0,1-2.032-5.177v-9.92a6.628,6.628,0,0,1,7.016-7.016h9.968a6.89,6.89,0,0,1,5.08,1.984,6.936,6.936,0,0,1,1.936,5.032v9.968a6.926,6.926,0,0,1-1.984,5.129,7.145,7.145,0,0,1-5.08,1.887Zm-3.532-20.516a4.822,4.822,0,0,0-1.307,3.532v9.92a4.862,4.862,0,0,0,1.307,3.58,5,5,0,0,0,3.532,1.258h9.871a5,5,0,0,0,3.532-1.258,4.729,4.729,0,0,0,1.4-3.532v-9.968a4.992,4.992,0,0,0-1.307-3.484,4.823,4.823,0,0,0-3.532-1.306h-9.968A4.921,4.921,0,0,0,1423.533-646.516Zm2.274,8.468a6.205,6.205,0,0,1,6.193-6.193,6.237,6.237,0,0,1,6.194,6.193,6.205,6.205,0,0,1-6.194,6.194A6.174,6.174,0,0,1,1425.807-638.048Zm2.225,0A3.986,3.986,0,0,0,1432-634.08a3.986,3.986,0,0,0,3.968-3.968,3.986,3.986,0,0,0-3.968-3.968A3.986,3.986,0,0,0,1428.032-638.048Zm9-6.339a1.4,1.4,0,0,1,1.4-1.4,1.4,1.4,0,0,1,1.4,1.4,1.4,1.4,0,0,1-1.4,1.4A1.4,1.4,0,0,1,1437.032-644.387Z" transform="translate(-1420 650)" fill="#fff"/>
</svg>
