<svg xmlns="http://www.w3.org/2000/svg" width="24" height="24" viewBox="0 0 24 24">
  <path id="linkedin" d="M22.286,128H1.709A1.722,1.722,0,0,0,0,129.73V150.27A1.722,1.722,0,0,0,1.709,152H22.286A1.726,1.726,0,0,0,24,150.27V129.73A1.726,1.726,0,0,0,22.286,128ZM7.254,148.571H3.7V137.118H7.259v11.454ZM5.475,135.554a2.063,2.063,0,1,1,2.063-2.062A2.063,2.063,0,0,1,5.475,135.554Zm15.112,13.018H17.03V143c0-1.329-.027-3.038-1.848-3.038-1.854,0-2.137,1.446-2.137,2.941v5.668H9.488V137.118H12.9v1.564h.048a3.747,3.747,0,0,1,3.37-1.848c3.6,0,4.27,2.373,4.27,5.459Z" transform="translate(0 -128)" fill="#fff"/>
</svg>
