<svg xmlns="http://www.w3.org/2000/svg" width="24" height="24" viewBox="0 0 24 24">
  <path id="Path_28664" data-name="Path 28664" d="M-1127.584,0h-16.831A3.585,3.585,0,0,0-1148,3.584V20.416A3.585,3.585,0,0,0-1144.416,24h16.831A3.585,3.585,0,0,0-1124,20.416V3.584A3.585,3.585,0,0,0-1127.584,0Zm-1.253,10.855a7.367,7.367,0,0,1-3.814-1l-.156-.09a.785.785,0,0,0-.01.079c-.007,1.653-.021,3.306.016,4.958a5.342,5.342,0,0,1-1.024,3.356,4.847,4.847,0,0,1-3.023,1.925,5.33,5.33,0,0,1-4.5-.968,4.987,4.987,0,0,1-1.829-2.951,5.23,5.23,0,0,1,3.917-6.285,5.133,5.133,0,0,1,1.985-.082c.086.013.1.05.1.124,0,.864,0,1.728,0,2.592,0,.138-.07.1-.137.078a2.458,2.458,0,0,0-2.546.661,2.387,2.387,0,0,0-.644,2.238,2.439,2.439,0,0,0,2.982,1.932,2.28,2.28,0,0,0,1.763-1.386,2.919,2.919,0,0,0,.19-1.18q0-5.442-.006-10.884c0-.174.047-.2.209-.2q1.166.038,2.332.046c.172,0,.226.038.228.224a4.316,4.316,0,0,0,.976,2.733,3.159,3.159,0,0,0,1.885,1.05,5.036,5.036,0,0,0,1.113.113c.115,0,.143.038.142.149q-.007,1.3,0,2.609C-1128.682,10.828-1128.722,10.853-1128.837,10.855Z" transform="translate(1148)" fill="#fff"/>
</svg>
