<svg id="youtube-square" xmlns="http://www.w3.org/2000/svg" width="24" height="24" viewBox="0 0 24 24">
  <path id="Path_28091" data-name="Path 28091" d="M41.005,40.115l5.1,2.9-5.1,2.9ZM55,33.571V52.429A2.572,2.572,0,0,1,52.429,55H33.571A2.572,2.572,0,0,1,31,52.429V33.571A2.572,2.572,0,0,1,33.571,31H52.429A2.572,2.572,0,0,1,55,33.571Zm-2.251,9.445a25.848,25.848,0,0,0-.405-4.725,2.439,2.439,0,0,0-1.723-1.733c-1.515-.411-7.616-.411-7.616-.411s-6.1,0-7.616.411a2.439,2.439,0,0,0-1.723,1.733,27.746,27.746,0,0,0,0,9.451,2.4,2.4,0,0,0,1.723,1.707c1.515.405,7.616.405,7.616.405s6.1,0,7.616-.411a2.4,2.4,0,0,0,1.723-1.707,25.769,25.769,0,0,0,.405-4.72Z" transform="translate(-31 -31)" fill="#fff"/>
</svg>
